/vscmnt/brussel_pixiu_data/_data_brussel/112/vsc11236/PredSimResults/SUBJ10opt3D/expIG/worker_04.mot
version=1
nRows=11
nColumns=50
inDegrees=yes
endheader
                time	         pelvis_tilt	         pelvis_list	     pelvis_rotation	           pelvis_tx	           pelvis_ty	           pelvis_tz	       hip_flexion_r	     hip_adduction_r	      hip_rotation_r	        knee_angle_r	       ankle_angle_r	         mtp_angle_r	       hip_flexion_l	     hip_adduction_l	      hip_rotation_l	        knee_angle_l	       ankle_angle_l	         mtp_angle_l	    lumbar_extension	      lumbar_bending	     lumbar_rotation	 ercspn_r/activation	 intobl_r/activation	 extobl_r/activation	    abd_r/activation	    add_r/activation	hamstrings_r/activation	bifemsh_r/activation	glut_max_r/activation	iliopsoas_r/activation	rect_fem_r/activation	  vasti_r/activation	gastroc_r/activation	 soleus_r/activation	tib_ant_r/activation	 ercspn_l/activation	 intobl_l/activation	 extobl_l/activation	    abd_l/activation	    add_l/activation	hamstrings_l/activation	bifemsh_l/activation	glut_max_l/activation	iliopsoas_l/activation	rect_fem_l/activation	  vasti_l/activation	gastroc_l/activation	 soleus_l/activation	tib_ant_l/activation	
          1.28081427	         -2.04169621	         -1.88409565	          8.14164341	          1.15273284	          0.83604173	         -0.01594618	         26.90963189	         -0.76148238	         -5.68358926	         -9.04977785	          1.99557532	          0.24518316	        -14.13597547	         -2.12398781	         -1.35626581	         -6.69090204	         10.48537080	         21.54292372	         -5.51920092	         -0.95700794	         -5.06176843	          0.11674235	          0.17839223	          0.00999999	          0.00999999	          0.13084081	          0.07484951	          0.14779810	          0.01758555	          0.08109655	          0.00999999	          0.00999999	          0.00999999	          0.00999999	          0.24630035	          0.05607788	          0.00999999	          0.00999999	          0.07396783	          0.00999999	          0.00999999	          0.18759272	          0.00999999	          0.25974200	          0.00999999	          0.00999999	          0.25999747	          0.23957911	          0.02168276	
          1.29362241	         -2.10059902	         -1.78680760	          8.10895084	          1.16643067	          0.83465309	         -0.01523923	         26.60835287	         -0.62655329	         -5.53938175	         -9.94577978	          1.86983415	          0.24536972	        -14.33631745	         -2.16221170	         -1.86296366	         -7.98960365	         10.09328436	         22.99022749	         -5.27631852	         -0.58551769	         -5.43639693	          0.10489152	          0.17286888	          0.00999999	          0.00999999	          0.17203321	          0.06773817	          0.13575466	          0.02630898	          0.06683034	          0.00999999	          0.00999999	          0.01472506	          0.01213468	          0.25715155	          0.07752066	          0.00999999	          0.00999999	          0.06095568	          0.00999999	          0.01000002	          0.15459209	          0.01041203	          0.21404914	          0.00999999	          0.00999999	          0.23986314	          0.23618804	          0.01786840	
          1.30643056	         -2.15143024	         -1.70125680	          8.03028943	          1.18047882	          0.83343668	         -0.01444454	         26.17255239	         -0.48882374	         -5.33986691	        -10.79390899	          1.63062539	          0.24112797	        -14.48280940	         -2.22227461	         -2.38787309	         -9.43236323	          9.56456066	         24.44860772	         -5.00500057	         -0.17964655	         -5.79800900	          0.09060865	          0.15695016	          0.00999999	          0.00999999	          0.14176976	          0.06094008	          0.11187320	          0.04769768	          0.05507379	          0.00999999	          0.00999999	          0.01213468	          0.00999999	          0.29885462	          0.08660819	          0.00999999	          0.00999999	          0.05023258	          0.00999999	          0.01000000	          0.12739682	          0.00999999	          0.17639440	          0.00999999	          0.00999999	          0.21756428	          0.22761258	          0.01472506	
          1.31923870	         -2.19470105	         -1.62295939	          7.89744301	          1.19470782	          0.83250258	         -0.01352852	         25.68701169	         -0.35223127	         -5.22119704	        -11.53913960	          1.26351172	          0.23439472	        -14.51235615	         -2.30013708	         -2.93849357	        -11.10645052	          8.88510929	         25.89304009	         -4.72683681	          0.24858972	         -6.13778876	          0.09594841	          0.12934006	          0.00999999	          0.03958114	          0.16349722	          0.06201254	          0.09219287	          0.04196828	          0.04538541	          0.00999999	          0.02861620	          0.00999999	          0.00999999	          0.34477483	          0.09911686	          0.00999999	          0.00999999	          0.04139585	          0.00999999	          0.00999999	          0.10498563	          0.00999999	          0.14536374	          0.00999999	          0.00999999	          0.18333071	          0.21616743	          0.01213468	
          1.33204684	         -2.23018644	         -1.54742733	          7.71425705	          1.20901393	          0.83195882	         -0.01250237	         25.17337465	         -0.22118834	         -5.20115785	        -12.24157996	          0.90227628	          0.22458676	        -14.37770252	         -2.39448776	         -3.51781550	        -13.07437334	          8.03804416	         27.26454360	         -4.45086908	          0.69042071	         -6.44899291	          0.09325449	          0.10658703	          0.00999999	          0.06521142	          0.16553625	          0.06470214	          0.07597464	          0.03458537	          0.03740137	          0.00999999	          0.04755502	          0.00999999	          0.00999999	          0.37082647	          0.11246433	          0.00999999	          0.00999999	          0.03411364	          0.00999999	          0.01063106	          0.08651694	          0.01153171	          0.11979188	          0.00999999	          0.00999999	          0.15107984	          0.19996943	          0.00999999	
          1.34485498	         -2.25835653	         -1.47798997	          7.48981258	          1.22328547	          0.83190459	         -0.01138553	         24.64281098	         -0.08943389	         -5.24715440	        -12.93951051	          0.69979839	          0.21247161	        -14.03824060	         -2.51442783	         -4.13267750	        -15.37906802	          7.01840451	         28.45790098	         -4.18492893	          1.14555980	         -6.73091663	          0.08527588	          0.08783663	          0.00999999	          0.08432291	          0.14818383	          0.06727286	          0.06260946	          0.02905238	          0.03082186	          0.00999999	          0.07198904	          0.00999999	          0.00999999	          0.37571269	          0.12773861	          0.00999999	          0.00999999	          0.02811249	          0.02320952	          0.03474181	          0.07129720	          0.01472506	          0.09871853	          0.00999999	          0.01161416	          0.12450243	          0.18134811	          0.00999999	
          1.35766313	         -2.28059304	         -1.41238471	          7.23115138	          1.23740145	          0.83243827	         -0.01019890	         24.09103361	          0.04892192	         -5.30457762	        -13.62585410	          0.74827998	          0.20493383	        -13.46274847	         -2.66282550	         -4.79925064	        -18.04041438	          5.82825599	         29.31665028	         -3.93895732	          1.60779455	         -6.98526533	          0.08112137	          0.07238473	          0.00999999	          0.09193125	          0.16386285	          0.07175591	          0.05159543	          0.03537916	          0.02539979	          0.00999999	          0.08485266	          0.00999999	          0.00999999	          0.35518428	          0.13508069	          0.00999999	          0.00999999	          0.02316705	          0.08447254	          0.03917052	          0.05875486	          0.01213468	          0.08135233	          0.00999999	          0.01191740	          0.10260042	          0.15391838	          0.00999999	
          1.37047127	         -2.29820591	         -1.33778088	          6.94162628	          1.25127095	          0.83358769	         -0.00897078	         23.49179579	          0.18677357	         -5.33896989	        -14.24708410	          1.06330242	          0.22703210	        -12.62094883	         -2.83407649	         -5.53270175	        -21.08761943	          4.50071037	         29.64729649	         -3.72170302	          2.06228893	         -7.21062350	          0.07584769	          0.05965107	          0.00999999	          0.09182930	          0.17197834	          0.07696703	          0.04251895	          0.04284554	          0.02093155	          0.00999999	          0.09491068	          0.00999999	          0.00999999	          0.31055135	          0.13928689	          0.00999999	          0.00999999	          0.01909158	          0.15115755	          0.04845008	          0.04841892	          0.00999999	          0.06704112	          0.00999999	          0.01211052	          0.08455133	          0.12684162	          0.00999999	
          1.38327941	         -2.31220371	         -1.23799617	          6.62331457	          1.26483386	          0.83531919	         -0.00772981	         22.80533267	          0.31295682	         -5.31658026	        -14.71331547	          1.57424315	          0.30487968	        -11.49191751	         -3.02613259	         -6.33579848	        -24.54156313	          3.05239146	         29.30702791	         -3.54011720	          2.49186209	         -7.40494045	          0.07036112	          0.04915747	          0.00999999	          0.08426211	          0.14202418	          0.08281359	          0.03503917	          0.04702061	          0.01724935	          0.00999999	          0.10060465	          0.00999999	          0.00999999	          0.26684308	          0.13493114	          0.00999999	          0.00999999	          0.01573306	          0.20134125	          0.05492923	          0.03990124	          0.00999999	          0.05524749	          0.00999999	          0.01123749	          0.06967736	          0.10452811	          0.00999999	
          1.39608755	         -2.32317802	         -1.09558841	          6.27544252	          1.27804794	          0.83753724	         -0.00650270	         22.00738956	          0.40927582	         -5.22638623	        -14.95211469	          2.12783929	          0.42468032	        -10.07389570	         -3.23523543	         -7.17819049	        -28.36415121	          1.37776814	         28.34971989	         -3.40153351	          2.87958720	         -7.56330473	          0.06384384	          0.04050987	          0.00999999	          0.07692640	          0.11703981	          0.08688714	          0.02887521	          0.04558031	          0.01421491	          0.00999999	          0.10209459	          0.00999999	          0.00999999	          0.23573594	          0.12904944	          0.00999999	          0.00999999	          0.01296536	          0.23798870	          0.06300183	          0.03288196	          0.00999999	          0.04552855	          0.00999999	          0.00999999	          0.05741998	          0.08613990	          0.00999999	
          1.40889570	         -2.33090490	         -0.89687029	          5.89597437	          1.29089466	          0.84009426	         -0.00530945	         21.09650709	          0.45739735	         -5.06830469	        -14.94612444	          2.63994484	          0.56840849	         -8.39496691	         -3.45325218	         -8.01124087	        -32.45001943	         -0.63602568	         26.86421507	         -3.31157279	          3.21228916	         -7.68043455	          0.05785014	          0.03338352	          0.00999999	          0.07433204	          0.09645059	          0.08762743	          0.02379559	          0.03962057	          0.01171427	          0.00999999	          0.10052598	          0.00999999	          0.00999999	          0.21500587	          0.12629009	          0.00999999	          0.00999999	          0.01068454	          0.25028292	          0.06089927	          0.02709748	          0.01067747	          0.03751934	          0.00999999	          0.00999999	          0.04731886	          0.07098649	          0.00999999	
